<svg width="28" height="28" viewBox="0 0 28 28" fill="none" xmlns="http://www.w3.org/2000/svg">
<rect width="28" height="28" rx="6" fill="#F3EF6A"/>
<path d="M13.0788 5.18059C13.4229 4.36611 14.5771 4.36611 14.9212 5.18059L17.1088 10.3591C17.2101 10.599 17.401 10.7899 17.6409 10.8912L22.8194 13.0788C23.6339 13.4229 23.6339 14.5771 22.8194 14.9212L17.6409 17.1088C17.401 17.2101 17.2101 17.401 17.1088 17.6409L14.9212 22.8194C14.5771 23.6339 13.4229 23.6339 13.0788 22.8194L10.8912 17.6409C10.7899 17.401 10.599 17.2101 10.3591 17.1088L5.18059 14.9212C4.36611 14.5771 4.36611 13.4229 5.18059 13.0788L10.3591 10.8912C10.599 10.7899 10.7899 10.599 10.8912 10.3591L13.0788 5.18059Z" fill="black"/>
</svg>
