<svg width="400" height="400" viewBox="0 0 400 400" fill="none" xmlns="http://www.w3.org/2000/svg">
<rect width="400" height="400" rx="5" fill="#E37828"/>
<mask id="mask0_120_1881" style="mask-type:alpha" maskUnits="userSpaceOnUse" x="7" y="13" width="387" height="387">
<rect x="7" y="13" width="387" height="387" rx="5" fill="#D9D9D9"/>
</mask>
<g mask="url(#mask0_120_1881)">
<path d="M200.479 266.67C181.194 266.67 162.341 260.952 146.306 250.237C130.271 239.523 117.773 224.294 110.393 206.476C103.012 188.659 101.081 169.053 104.844 150.138C108.606 131.223 117.893 113.849 131.53 100.212C145.167 86.5752 162.541 77.2884 181.456 73.526C200.371 69.7636 219.977 71.6946 237.794 79.0748C255.612 86.455 270.841 98.953 281.555 114.988C292.269 131.024 297.988 149.876 297.988 169.161C297.959 195.013 287.676 219.798 269.396 238.078C251.116 256.358 226.331 266.641 200.479 266.67Z" fill="white"/>
<path d="M277.666 275.791C275.598 274.418 272.853 274.874 271.17 276.699C262.667 285.917 252.433 293.394 241.037 298.695C228.332 304.604 214.49 307.665 200.479 307.665C186.467 307.665 172.625 304.604 159.921 298.695C148.524 293.394 138.29 285.917 129.787 276.699C128.104 274.874 125.359 274.418 123.292 275.791C104.864 288.023 89.6035 304.49 78.8031 323.839C67.2998 344.448 61.2349 367.646 61.1802 391.248C61.1802 398.637 64.1154 405.723 69.3401 410.948C74.5648 416.172 81.651 419.108 89.0399 419.108H311.918C319.306 419.108 326.393 416.172 331.617 410.948C336.842 405.723 339.777 398.637 339.777 391.248C339.723 367.646 333.658 344.448 322.154 323.839C311.354 304.49 296.094 288.023 277.666 275.791Z" fill="#F4F1F1"/>
</g>
</svg>
